<svg id="Layer_9" data-name="Layer 9" xmlns="http://www.w3.org/2000/svg" viewBox="0 0 433.7 433.7"><defs><style>.cls-1,.cls-10,.cls-2,.cls-3,.cls-4,.cls-5,.cls-6,.cls-7,.cls-8,.cls-9{fill:none;stroke-miterlimit:10;stroke-width:0.5px;}.cls-1{stroke:#b81e74;}.cls-2{stroke:#3d59a8;}.cls-3{stroke:#3a53a4;}.cls-4{stroke:#454da0;}.cls-5{stroke:#584da0;}.cls-6{stroke:#283892;}.cls-7{stroke:#765ba7;}.cls-8{stroke:#8856a3;}.cls-9{stroke:#ad529f;}.cls-10{stroke:#d04c9b;}</style></defs><circle class="cls-1" cx="216.82" cy="216.46" r="89.67"/><ellipse class="cls-2" cx="215.9" cy="216.21" rx="177.65" ry="17.62"/><ellipse class="cls-3" cx="215.78" cy="216.18" rx="153.2" ry="33.21"/><ellipse class="cls-4" cx="216.45" cy="216.26" rx="137.07" ry="44.97"/><ellipse class="cls-5" cx="216.88" cy="216.01" rx="125.09" ry="56.3"/><line class="cls-6" y1="216.15" x2="433.7" y2="216.15"/><ellipse class="cls-7" cx="217.41" cy="216.08" rx="115.2" ry="65.43"/><ellipse class="cls-8" cx="217.16" cy="216.25" rx="106.98" ry="73.91"/><ellipse class="cls-9" cx="216.82" cy="216.46" rx="99.58" ry="80.36"/><ellipse class="cls-10" cx="216.81" cy="216.54" rx="93.98" ry="85.66"/><ellipse class="cls-2" cx="217.14" cy="215.9" rx="17.62" ry="177.65"/><ellipse class="cls-3" cx="217.17" cy="215.78" rx="33.21" ry="153.2"/><ellipse class="cls-4" cx="217.09" cy="216.45" rx="44.97" ry="137.07"/><ellipse class="cls-5" cx="217.34" cy="216.88" rx="56.3" ry="125.09"/><line class="cls-6" x1="217.2" x2="217.2" y2="433.7"/><ellipse class="cls-7" cx="217.27" cy="217.41" rx="65.43" ry="115.2"/><ellipse class="cls-8" cx="217.1" cy="217.16" rx="73.91" ry="106.98"/><ellipse class="cls-9" cx="216.89" cy="216.82" rx="80.36" ry="99.58"/><ellipse class="cls-10" cx="216.81" cy="216.81" rx="85.66" ry="93.98"/></svg>