<svg xmlns="http://www.w3.org/2000/svg" viewBox="0 0 433.7 433.7"><defs><style>.cls-1,.cls-10,.cls-2,.cls-3,.cls-4,.cls-5,.cls-6,.cls-7,.cls-8,.cls-9{fill:none;stroke-miterlimit:10;}.cls-1{stroke:#bb479a;}.cls-2{stroke:#e6cd1d;}.cls-3{stroke:#69bd45;}.cls-4{stroke:#5bbf92;}.cls-5{stroke:#217ec2;}.cls-6{stroke:#f26222;}.cls-7{stroke:#3a71b8;}.cls-8{stroke:#35469d;}.cls-9{stroke:#4d4da0;}.cls-10{stroke:#883b96;}</style></defs><g id="Layer_6" data-name="Layer 6"><circle class="cls-1" cx="216.82" cy="216.75" r="89.67"/><ellipse class="cls-2" cx="215.9" cy="216.5" rx="177.65" ry="17.62"/><ellipse class="cls-3" cx="215.78" cy="216.48" rx="153.2" ry="33.21"/><ellipse class="cls-4" cx="216.45" cy="216.55" rx="137.07" ry="44.97"/><ellipse class="cls-5" cx="216.88" cy="216.3" rx="125.09" ry="56.3"/><line class="cls-6" y1="216.45" x2="433.7" y2="216.45"/><ellipse class="cls-7" cx="217.41" cy="216.38" rx="115.2" ry="65.43"/><ellipse class="cls-8" cx="217.16" cy="216.54" rx="106.98" ry="73.91"/><ellipse class="cls-9" cx="216.82" cy="216.75" rx="99.58" ry="80.36"/><ellipse class="cls-10" cx="216.81" cy="216.83" rx="93.98" ry="85.66"/></g><g id="Layer_7" data-name="Layer 7"><ellipse class="cls-2" cx="217.14" cy="215.9" rx="17.62" ry="177.65"/><ellipse class="cls-3" cx="217.17" cy="215.78" rx="33.21" ry="153.2"/><ellipse class="cls-4" cx="217.09" cy="216.45" rx="44.97" ry="137.07"/><ellipse class="cls-5" cx="217.34" cy="216.88" rx="56.3" ry="125.09"/><line class="cls-6" x1="217.2" x2="217.2" y2="433.7"/><ellipse class="cls-7" cx="217.27" cy="217.41" rx="65.43" ry="115.2"/><ellipse class="cls-8" cx="217.1" cy="217.16" rx="73.91" ry="106.98"/><ellipse class="cls-9" cx="216.89" cy="216.82" rx="80.36" ry="99.58"/><ellipse class="cls-10" cx="216.81" cy="216.81" rx="85.66" ry="93.98"/></g></svg>